<svg height="20" viewBox="0 0 20 20" width="20" xmlns="http://www.w3.org/2000/svg"><path d="m9.856 0c2.662 0 2.996.011 4.042.059 1.043.048 1.756.213 2.38.456.644.25 1.19.585 1.735 1.13s.88 1.092 1.13 1.736c.243.624.409 1.336.456 2.38.048 1.045.06 1.379.06 4.041s-.012 2.996-.06 4.041c-.047 1.044-.213 1.756-.455 2.38a4.805 4.805 0 0 1 -1.13 1.736 4.805 4.805 0 0 1 -1.737 1.13c-.623.243-1.336.408-2.38.456-1.045.048-1.379.059-4.04.059-2.663 0-2.996-.011-4.042-.059-1.043-.048-1.756-.213-2.38-.456a4.805 4.805 0 0 1 -1.735-1.129 4.805 4.805 0 0 1 -1.13-1.736c-.243-.624-.409-1.336-.457-2.38-.047-1.045-.059-1.379-.059-4.041s.012-2.996.06-4.041c.047-1.044.213-1.756.455-2.38a4.805 4.805 0 0 1 1.131-1.737 4.805 4.805 0 0 1 1.737-1.13c.622-.243 1.335-.408 2.379-.456s1.377-.059 4.039-.059zm0 1.766c-2.617 0-2.927.01-3.96.057-.956.044-1.475.204-1.82.338-.458.178-.785.39-1.128.733s-.555.67-.733 1.127c-.134.345-.294.864-.337 1.82-.047 1.034-.057 1.344-.057 3.961s.01 2.927.057 3.96c.043.957.203 1.476.337 1.82.178.458.39.785.733 1.128s.67.555 1.128.733c.345.134.864.294 1.82.338 1.033.047 1.343.057 3.96.057 2.618 0 2.928-.01 3.961-.057.956-.044 1.475-.204 1.82-.338.458-.178.784-.39 1.127-.733s.556-.67.734-1.127c.134-.345.294-.864.337-1.82.047-1.034.057-1.344.057-3.961s-.01-2.927-.057-3.96c-.043-.957-.203-1.476-.337-1.82a3.037 3.037 0 0 0 -.734-1.128 3.037 3.037 0 0 0 -1.127-.733c-.345-.134-.864-.294-1.82-.338-1.033-.047-1.343-.057-3.96-.057zm0 3.003a5.033 5.033 0 1 1 0 10.066 5.033 5.033 0 0 1 0-10.066zm0 8.3a3.267 3.267 0 1 0 0-6.534 3.267 3.267 0 0 0 0 6.534zm6.409-8.5a1.176 1.176 0 1 1 -2.352 0 1.176 1.176 0 0 1 2.352 0z"></path></svg>