<svg xmlns="http://www.w3.org/2000/svg" width="615" height="1272" viewBox="0 0 615 1272">
  <g fill="none" fill-rule="evenodd">
    <path fill="#151733" fill-rule="nonzero" d="M615,94.0931507 C615,33.1068493 580.155807,0 520.92068,0 L94.0793201,0 C34.8441926,0 0,34.8493151 0,94.0931507 L0,1177.90685 C0,1237.15068 38.3286119,1272 94.0793201,1272 L520.92068,1272 C580.155807,1272 615,1235.40822 615,1177.90685 L615,94.0931507 Z M588.866856,1174.42192 C588.866856,1217.98356 562.733711,1244.12055 519.17847,1244.12055 L97.5637394,1244.12055 C54.0084986,1244.12055 27.8753541,1217.98356 27.8753541,1174.42192 L27.8753541,95.8356164 C27.8753541,54.0164384 52.266289,26.1369863 97.5637394,26.1369863 L142.86119,26.1369863 C153.314448,26.1369863 158.541076,26.1369863 158.541076,40.0767123 C160.283286,54.0164384 168.994334,62.7287671 182.932011,66.2136986 C187.464528,67.4888956 192.162786,68.0762642 196.869688,67.9561644 L425.09915,67.9561644 C429.806053,68.0762642 434.504311,67.4888956 439.036827,66.2136986 C452.974504,60.9863014 461.685552,54.0164384 463.427762,40.0767123 C463.427762,26.1369863 468.654391,26.1369863 479.107649,26.1369863 L519.17847,26.1369863 C564.475921,26.1369863 588.866856,48.7890411 588.866856,95.8356164 L588.866856,1174.42192 Z"/>
    <g fill="#FFF" transform="translate(78 46)">
      <path d="M1.4915223,0 L32.7084777,0 C33.5321768,0 34.2,0.667519207 34.2,1.49094588 L34.2,12.9490541 C34.2,13.7628967 33.5322227,14.44 32.7084777,14.44 L1.4915223,14.44 C0.66782319,14.44 0,13.7724808 0,12.9490541 L0,1.49094588 C0,0.677103298 0.667777278,0 1.4915223,0 Z M34.96,4.56 L36.233322,4.56 C36.8003931,4.56 37.24,5.00800685 37.24,5.56065131 L37.24,8.87934869 C37.24,9.42641979 36.7892949,9.88 36.233322,9.88 L34.96,9.88 L34.96,4.56 Z M1.75589134,0.76 C1.20587574,0.76 0.76,1.20473564 0.76,1.7523577 L0.76,12.6876423 C0.76,13.2357063 1.20953809,13.68 1.75589134,13.68 L32.4441087,13.68 C32.9941243,13.68 33.44,13.2352644 33.44,12.6876423 L33.44,1.7523577 C33.44,1.20429368 32.9904619,0.76 32.4441087,0.76 L1.75589134,0.76 Z M2.02207005,1.52 L32.1779299,1.52 C32.4471007,1.52 32.68,1.74589618 32.68,2.02455324 L32.68,12.4154468 C32.68,12.7024495 32.4552156,12.92 32.1779299,12.92 L2.02207005,12.92 C1.75289929,12.92 1.52,12.6941038 1.52,12.4154468 L1.52,2.02455324 C1.52,1.73755054 1.74478442,1.52 2.02207005,1.52 Z" transform="translate(454 8)"/>
      <path d="M17.9420145,14.4083304 L13.5466881,18.6785714 L9.0674851,14.3395867 C10.1398517,13.1508278 11.7165151,12.399889 13.4742377,12.399889 C15.2656061,12.399889 16.8689175,13.1798515 17.9420145,14.4083304 Z M22.4558139,10.0229879 L20.2002874,12.214325 C18.5452346,10.4306297 16.1449731,9.3088453 13.4742377,9.3088453 C10.8354138,9.3088453 8.46063888,10.4039824 6.807833,12.1506713 L4.54991592,9.96343673 C6.78158322,7.65807208 9.95427834,6.21780163 13.4742377,6.21780163 C17.0244086,6.21780163 20.2213287,7.68290167 22.4558139,10.0229879 Z M26.9642857,5.64282146 L24.7103018,7.83265993 C21.8973247,4.93573261 17.9038625,3.12675796 13.4742377,3.12675796 C9.07313372,3.12675796 5.10259388,4.91251285 2.2926557,7.77683842 L0.0357142857,5.59054893 C3.42363851,2.16712324 8.19198563,0.0357142857 13.4742377,0.0357142857 C18.7833234,0.0357142857 23.5732697,2.1888332 26.9642857,5.64282146 Z" transform="translate(423 6)"/>
      <g transform="translate(389 4)">
        <rect width="5" height="8" y="12" rx="2"/>
        <rect width="5" height="12" x="8" y="8" rx="2"/>
        <rect width="5" height="16" x="16" y="4" rx="2"/>
        <rect width="5" height="20" x="24" rx="2"/>
      </g>
      <path d="M3.1875,18.9453125 C3.25000031,20.1093808 3.69921457,20.9140603 4.53515625,21.359375 C4.9648459,21.5937512 5.44921605,21.7109375 5.98828125,21.7109375 C6.99609879,21.7109375 7.8554652,21.2910198 8.56640625,20.4511719 C9.2773473,19.6113239 9.78124852,17.9062629 10.078125,15.3359375 C9.60937266,16.0781287 9.02930033,16.5996079 8.33789062,16.9003906 C7.64648092,17.2011734 6.90234773,17.3515625 6.10546875,17.3515625 C4.48827316,17.3515625 3.20898908,16.8476613 2.26757812,15.8398438 C1.32616717,14.8320262 0.85546875,13.5351642 0.85546875,11.9492188 C0.85546875,10.4257736 1.32030785,9.08594328 2.25,7.9296875 C3.17969215,6.77343172 4.55077219,6.1953125 6.36328125,6.1953125 C8.80860598,6.1953125 10.4960891,7.29686398 11.4257812,9.5 C11.9414088,10.7109436 12.1992188,12.2265534 12.1992188,14.046875 C12.1992188,16.1015728 11.8906281,17.9218671 11.2734375,19.5078125 C10.2499949,22.1484507 8.51563723,23.46875 6.0703125,23.46875 C4.4296793,23.46875 3.18359801,23.0390668 2.33203125,22.1796875 C1.48046449,21.3203082 1.0546875,20.242194 1.0546875,18.9453125 L3.1875,18.9453125 Z M6.38671875,15.5 C7.22266043,15.5 7.98632467,15.2246121 8.67773438,14.6738281 C9.36914408,14.1230441 9.71484375,13.1601631 9.71484375,11.7851562 C9.71484375,10.5507751 9.40429998,9.6308624 8.78320312,9.02539062 C8.16210627,8.41991885 7.37109855,8.1171875 6.41015625,8.1171875 C5.37890109,8.1171875 4.5605499,8.46288717 3.95507812,9.15429688 C3.34960635,9.84570658 3.046875,10.7695255 3.046875,11.9257812 C3.046875,13.0195367 3.31249734,13.8886687 3.84375,14.5332031 C4.37500266,15.1777376 5.22265043,15.5 6.38671875,15.5 Z M15.0478123,10.6132812 L17.4970311,10.6132812 L17.4970311,13.1679688 L15.0478123,13.1679688 L15.0478123,10.6132812 Z M15.0478123,20.4453125 L17.4970311,20.4453125 L17.4970311,23 L15.0478123,23 L15.0478123,20.4453125 Z M26.0292184,17.0585938 L26.0292184,9.453125 L20.6503121,17.0585938 L26.0292184,17.0585938 Z M26.0643746,23 L26.0643746,18.8984375 L18.7049996,18.8984375 L18.7049996,16.8359375 L26.3924996,6.171875 L28.1737496,6.171875 L28.1737496,17.0585938 L30.6464059,17.0585938 L30.6464059,18.8984375 L28.1737496,18.8984375 L28.1737496,23 L26.0643746,23 Z M32.7801556,11.1171875 L32.7801556,9.5 C34.3036008,9.35156176 35.3660901,9.10351736 35.9676556,8.75585938 C36.5692212,8.40820139 37.0184354,7.58594398 37.3153119,6.2890625 L38.9793744,6.2890625 L38.9793744,23 L36.7293744,23 L36.7293744,11.1171875 L32.7801556,11.1171875 Z"/>
    </g>
    <rect width="220" height="4" x="197" y="1206" fill="#FFF" rx="2"/>
    <rect width="79" height="10" x="269" y="34" fill="#1E2144" rx="5"/>
  </g>
</svg>
