<svg xmlns="http://www.w3.org/2000/svg" width="615" height="1272" viewBox="0 0 615 1272">
  <g fill="none" fill-rule="evenodd">
    <path fill="#151733" fill-rule="nonzero" d="M615,94.0931507 C615,33.1068493 580.155807,0 520.92068,0 L94.0793201,0 C34.8441926,0 0,34.8493151 0,94.0931507 L0,1177.90685 C0,1237.15068 38.3286119,1272 94.0793201,1272 L520.92068,1272 C580.155807,1272 615,1235.40822 615,1177.90685 L615,94.0931507 Z M588.866856,1174.42192 C588.866856,1217.98356 562.733711,1244.12055 519.17847,1244.12055 L97.5637394,1244.12055 C54.0084986,1244.12055 27.8753541,1217.98356 27.8753541,1174.42192 L27.8753541,95.8356164 C27.8753541,54.0164384 52.266289,26.1369863 97.5637394,26.1369863 L142.86119,26.1369863 C153.314448,26.1369863 158.541076,26.1369863 158.541076,40.0767123 C160.283286,54.0164384 168.994334,62.7287671 182.932011,66.2136986 C187.464528,67.4888956 192.162786,68.0762642 196.869688,67.9561644 L425.09915,67.9561644 C429.806053,68.0762642 434.504311,67.4888956 439.036827,66.2136986 C452.974504,60.9863014 461.685552,54.0164384 463.427762,40.0767123 C463.427762,26.1369863 468.654391,26.1369863 479.107649,26.1369863 L519.17847,26.1369863 C564.475921,26.1369863 588.866856,48.7890411 588.866856,95.8356164 L588.866856,1174.42192 Z"/>
  </g>
</svg>
