<svg xmlns="http://www.w3.org/2000/svg" width="19" height="17" viewBox="0 0 19 17"><path d="M18.713 16.93h-3.939v-5.638c0-1.476-.616-2.483-1.971-2.483-1.036 0-1.613.68-1.88 1.335-.101.235-.086.563-.086.89v5.897H6.935s.05-9.988 0-10.896h3.902v1.71c.23-.748 1.478-1.815 3.468-1.815 2.468 0 4.408 1.567 4.408 4.942v6.059zM2.989 4.673h-.025C1.706 4.672.89 3.839.89 2.782c0-1.075.84-1.89 2.122-1.89 1.281 0 2.07.813 2.095 1.888 0 1.056-.814 1.892-2.12 1.892zM1.34 6.035h3.473V16.93H1.341V6.035z"></path></svg>