<svg xmlns="http://www.w3.org/2000/svg" width="104" height="109" viewBox="0 0 104 109">
  <g fill="#0062FF" fill-rule="evenodd">
    <circle cx="63.68" cy="66.04" r="3.5"/>
    <rect width="7" height="7" x="3" y="52.04"/>
    <rect width="10" height="10" y="35.02"/>
    <rect width="7" height="7" x="17" y="38.02"/>
    <path d="M85,85.11 C82.524231,81.6326171 78.5186791,79.5683606 74.25,79.57 L74.25,86.65 C77.6332332,86.6499821 80.3789797,89.3867847 80.39,92.77 L80.39,101.35 L73.32,101.35 C69.9312548,101.344494 67.1855057,98.5987452 67.18,95.21 L67.18,79.57 L60.11,79.57 C50.0989521,79.6678713 41.512879,72.4491154 39.89,62.57 L32.74,62.57 C34.5001975,76.3485501 46.2194799,86.6762479 60.11,86.69 L60.11,95.77 C60.1702925,99.2065052 61.5984318,102.477107 64.0780147,104.857206 C66.5575975,107.237306 69.8839064,108.530398 73.32,108.45 L87.46,108.45 L87.46,92.77 C87.46,92.65 87.46,92.52 87.46,92.39 C87.3106214,89.7860668 86.4606908,87.270825 85,85.11 Z"/>
    <path fill-rule="nonzero" d="M60,16 L60,13.21 C59.9944801,5.91270116 54.0773009,-2.08770635e-06 46.78,0 L39.71,0 L39.71,9.83 C39.7111409,12.0982231 40.3003069,14.3274067 41.42,16.3 C35.4607347,17.7207998 31.2467217,23.0337613 31.22,29.16 L31.22,36.23 L46.79,36.23 C50.3010685,36.2433898 53.6719085,34.853175 56.1527482,32.3685793 C58.633588,29.8839836 60.0187016,26.5110443 60,23 C66.5176751,24.688927 71.0644238,30.5770694 71.05,37.31 C71.05,45.31 65.5,52.04 56.74,52.04 L17,52.04 L17,59.04 C16.975265,81.3044122 33.9126297,99.9233782 56.08,102 L57.77,102.18 C56.9075798,99.8742798 56.5132356,97.4198274 56.61,94.96 L56.08,94.91 C37.8547178,92.8403121 24.0849037,77.4224233 24.08,59.08 L56.74,59.08 C69.37,59.08 78.06,49.2 78.06,37.34 C78.0682947,33.45438 77.0321573,29.6379407 75.06,26.29 C85.4054705,30.984609 92.9278942,40.2871856 95.3536097,51.3860152 C97.7793252,62.4848448 94.8236721,74.0774677 87.38,82.66 C88.9160188,84.7378708 89.9776253,87.1273388 90.49,89.66 C98.6615817,81.5839977 103.25418,70.5689669 103.24,59.08 C103.22,35.38 83.62,16.17 60,16 Z M46.8,29.2 C46.8,29.2 38.32,29.2 38.32,29.2 C38.3296967,25.8672139 40.9883239,23.1465521 44.32,23.06 L52.9,23.06 C52.8255284,26.405351 50.1255769,29.0964792 46.78,29.16 L46.8,29.2 Z M52.9,16 C49.531344,15.9728102 46.8071898,13.248656 46.78,9.88 L46.78,7.08 C50.1655055,7.08 52.91,9.82449448 52.91,13.21 L52.9,16 Z"/>
  </g>
</svg>
