<svg xmlns="http://www.w3.org/2000/svg" width="20" height="17" viewBox="0 0 20 17"><path d="M19.55 2.572c-.72.322-1.496.54-2.31.637A4.052 4.052 0 0 0 19.01.97c-.778.464-1.638.801-2.556.982A4 4 0 0 0 13.518.673c-2.22 0-4.02 1.813-4.02 4.05 0 .317.034.625.103.921a11.39 11.39 0 0 1-8.29-4.232A4.065 4.065 0 0 0 .765 3.45c0 1.404.71 2.644 1.79 3.37a4.004 4.004 0 0 1-1.823-.505v.05c0 1.963 1.386 3.6 3.227 3.97a3.902 3.902 0 0 1-1.06.143c-.258 0-.512-.025-.757-.072a4.027 4.027 0 0 0 3.757 2.81 8.033 8.033 0 0 1-4.995 1.735c-.324 0-.645-.019-.96-.056a11.347 11.347 0 0 0 6.166 1.818c7.399 0 11.443-6.17 11.443-11.52 0-.176-.003-.353-.01-.525a8.167 8.167 0 0 0 2.006-2.096"></path></svg>